<?xml version="1.0" encoding="UTF-8"?>
<svg width="66px" height="77px" viewBox="0 0 66 77" version="1.1" xmlns="http://www.w3.org/2000/svg" xmlns:xlink="http://www.w3.org/1999/xlink">
    <title>Path</title>
    <g id="Page-3" stroke="none" stroke-width="1" fill="none" fill-rule="evenodd">
        <g id="3" transform="translate(1.5, 1)" fill="#E80020" fill-rule="nonzero" stroke="#000000" stroke-width="2">
            <path d="M16.8,29.7 L35.1,16 L0,16 L0,0 L62.9,0 L62.9,13 L37.1,31.7 L38,31.7 C42.7333333,31.7 46.7,32.15 49.9,33.05 C53.1,33.95 55.6666667,35.15 57.6,36.65 C59.5333333,38.15 60.9166667,39.9 61.75,41.9 C62.5833333,43.9 63,46 63,48.2 L63,55.5 C63,62.1 60.5666667,67 55.7,70.2 C50.8333333,73.4 43.6666667,75 34.2,75 L1.5,75 L1.5,59 L36.8,59 C38.9333333,59 40.4833333,58.6166667 41.45,57.85 C42.4166667,57.0833333 42.9,55.5666667 42.9,53.3 L42.9,50.6 C42.9,48.3333333 42.3833333,46.85 41.35,46.15 C40.3166667,45.45 38.8666667,45.1 37,45.1 L18.5,45.1 C15.9666667,45.1 14.0333333,44.4333333 12.7,43.1 C11.3666667,41.7666667 10.7,40.0666667 10.7,38 C10.7,36.2666667 11.25,34.7833333 12.35,33.55 C13.45,32.3166667 14.9333333,31.0333333 16.8,29.7 Z" id="Path"></path>
        </g>
    </g>
</svg>