<?xml version="1.0" encoding="UTF-8"?>
<svg width="66px" height="77px" viewBox="0 0 66 77" version="1.1" xmlns="http://www.w3.org/2000/svg" xmlns:xlink="http://www.w3.org/1999/xlink">
    <title>Path</title>
    <g id="Page-2" stroke="none" stroke-width="1" fill="none" fill-rule="evenodd">
        <g id="2" transform="translate(1.4, 1)" fill="#27F4D2" fill-rule="nonzero" stroke="#000000" stroke-width="2">
            <path d="M61.9,59.3 L61.9,75 L-2.84217094e-14,75 L-2.84217094e-14,62.8 C-2.84217094e-14,59.6 0.333333333,56.7333333 1,54.2 C1.66666667,51.6666667 2.83333333,49.3166667 4.5,47.15 C6.16666667,44.9833333 8.38333333,42.8833333 11.15,40.85 C13.9166667,38.8166667 17.4,36.7 21.6,34.5 L37.5,26.2 C39.2333333,25.3333333 40.4666667,24.4833333 41.2,23.65 C41.9333333,22.8166667 42.3,21.7666667 42.3,20.5 C42.3,18.6333333 41.6666667,17.3666667 40.4,16.7 C39.1333333,16.0333333 37.4333333,15.7 35.3,15.7 L1.6,15.7 L1.6,0 L37,0 C45.9333333,0 52.4666667,1.61666667 56.6,4.85 C60.7333333,8.08333333 62.8,12.5 62.8,18.1 C62.8,21.2333333 62.3333333,23.9333333 61.4,26.2 C60.4666667,28.4666667 59.0833333,30.5 57.25,32.3 C55.4166667,34.1 53.1666667,35.8166667 50.5,37.45 C47.8333333,39.0833333 44.7666667,40.8333333 41.3,42.7 L26.8,50.6 C24.5333333,51.8 23.0833333,52.9 22.45,53.9 C21.8166667,54.9 21.5,56.0333333 21.5,57.3 L21.5,59.3 L61.9,59.3 Z" id="Path"></path>
        </g>
    </g>
</svg>